<?xml version="1.0" encoding="utf-8"?>
<!-- Generator: Adobe Illustrator 23.0.1, SVG Export Plug-In . SVG Version: 6.00 Build 0)  -->
<svg version="1.1" id="Layer_1" xmlns="http://www.w3.org/2000/svg" xmlns:xlink="http://www.w3.org/1999/xlink" x="0px" y="0px"
	 viewBox="0 0 1000 1000" style="enable-background:new 0 0 1000 1000;" xml:space="preserve">
<style type="text/css">
	.st0{fill:#EF434F;}
</style>
<path class="st0" d="M814.8,894.4c-35.4-19-55.7-40.1-60.1-63.1c-4.3-22.3,5.6-47.2,30.5-76c59.4-68.1,92.1-155.6,92.1-246.4
	c0-207-168.4-375.5-375.4-375.5h-3.4c-207,0-375.4,168.4-375.4,375.5c-0.1,90.6,32.6,178.1,92.1,246.4c25,29,34.7,52.8,30.6,74.9
	c-4.3,23-24.6,44.6-60.3,64.1C130.5,848.7,82.1,787.7,52.2,726.5c-16.1-33.2-28.7-68.3-37.1-104.2c-8.7-37-13.1-75.1-13.1-113.3
	c-0.1-66.4,13.1-132.1,39-193.2c25-59,61.1-112.6,106.5-157.7c45.2-45.3,98.8-81.5,157.7-106.3c61.2-25.9,126.2-39,193.2-39h3.4
	c66.4-0.1,132.1,13.1,193.2,39c59.1,25,112.2,60.8,157.7,106.3c45.3,45.2,81.4,98.8,106.4,157.7c25.9,61.1,39.1,126.8,39,193.2
	c0,38.2-4.4,76.2-13,113.3c-8.4,36-20.9,71-37.1,104.2C918,787.7,869.6,848.7,814.8,894.4 M631.6,987.3
	c-5.8-3.6-25.5-18.3-44.7-44.9c-18.4-25.4-40.1-67.6-39-124.1c0.7-34,7.5-67.1,20.4-98.4c12.7-31,30.9-59.4,54-84.4l0.1-0.2l5.1-5.9
	c8.8-10.1,17.8-20.6,25-32.9c8.7-14.6,15.2-30.5,19.2-47.1c5.9-25.2,6.3-51.4,1-76.7c-4.9-23.1-14.6-45.6-28.5-64.9
	c-13.3-18.7-30.7-35.1-50.2-47.3c-20.6-12.8-43.6-21.2-67.5-24.6c-8.2-1.2-16.4-1.8-24.7-1.8h-3.6c-8.3,0-16.5,0.6-24.7,1.8
	c-24,3.4-47,11.8-67.5,24.6c-19.5,12.2-36.9,28.5-50.2,47.3c-13.8,19.5-23.5,41.6-28.5,64.9c-5.3,25.3-5,51.5,1,76.7
	c3.8,16.1,10.3,32,19.2,47.1c7.2,12.3,16.3,22.7,25,32.9l5.1,5.9l0.1,0.2c23,24.6,41.3,53.2,54,84.4c12.8,31.2,19.6,64.2,20.4,98.4
	c1.2,56.5-20.5,98.7-38.9,124.1c-19.3,26.6-38.9,41.3-44.7,44.9l-28.8-8.7c-28.6-9.6-56.3-21.8-82.7-36.4
	c45.6-24.6,74.1-72.2,74.2-124c0-34.4-13.4-67.3-39.7-97.8c-0.4-0.5-0.8-0.8-1.1-1.2l-7.9-8.6l-21.1-24.8
	c-24.1-32.3-41.3-69.1-50.6-108.2c-10-42.6-10.6-86.8-1.6-129.6c8.4-39.6,24.8-77,48.2-110c22.7-31.9,51.5-59,84.8-79.8
	c34.5-21.5,74.1-36,114.4-41.7c13.8-2,27.7-2.9,41.6-2.9h3.7c13.9,0,27.9,1,41.7,2.9c40.6,5.8,79.6,20,114.4,41.7
	c33,20.6,62.3,48.2,84.8,79.8c23.2,32.7,39.9,70.8,48.2,110c8.9,42.8,8.4,87.1-1.6,129.6c-9.4,39.1-26.6,76-50.7,108.2
	c-6.4,8.8-13.6,16.4-21.2,24.8l-7.6,8.4c-0.1,0.1-0.1,0.1-0.2,0.2c-0.3,0.3-0.7,0.7-1.1,1.2c-26.7,32.1-39.7,64-39.7,97.9
	c0,51.9,28.8,99.6,74.3,124c-26.4,14.6-54.1,26.8-82.7,36.4l-28.8,8.7 M500,611.6c-54,0-98-44-98-98c0-54,44-98,98-98s98,44,98,98
	C598,567.7,554.1,611.6,500,611.6"/>
</svg>
